<svg xmlns="http://www.w3.org/2000/svg" xmlns:xlink="http://www.w3.org/1999/xlink" width="900" zoomAndPan="magnify" viewBox="0 0 675 142.499996" height="190" preserveAspectRatio="xMidYMid meet" version="1.0"><defs><g/><clipPath id="4b61182e17"><path d="M 1.179688 0 L 673.820312 0 L 673.820312 142 L 1.179688 142 Z M 1.179688 0 " clip-rule="nonzero"/></clipPath></defs><g clip-path="url(#4b61182e17)"><path fill="#ffffff" d="M 1.179688 0 L 673.820312 0 L 673.820312 142 L 1.179688 142 Z M 1.179688 0 " fill-opacity="1" fill-rule="nonzero"/><path fill="#ffffff" d="M 1.179688 0 L 673.820312 0 L 673.820312 142 L 1.179688 142 Z M 1.179688 0 " fill-opacity="1" fill-rule="nonzero"/></g><g fill="#2b2b2b" fill-opacity="0.4"><g transform="translate(111.159431, 103.299598)"><g><path d="M 19.78125 -7.15625 C 23.164062 -7.15625 26.160156 -8.097656 28.765625 -9.984375 C 31.367188 -11.867188 32.671875 -14.503906 32.671875 -17.890625 C 32.671875 -20.398438 31.789062 -22.582031 30.03125 -24.4375 C 28.28125 -26.289062 24.925781 -28.347656 19.96875 -30.609375 C 16.632812 -32.109375 13.882812 -33.613281 11.71875 -35.125 C 9.550781 -36.632812 7.789062 -38.503906 6.4375 -40.734375 C 5.09375 -42.960938 4.421875 -45.707031 4.421875 -48.96875 C 4.421875 -54.425781 6.335938 -58.769531 10.171875 -62 C 14.003906 -65.238281 19.117188 -66.859375 25.515625 -66.859375 C 30.410156 -66.859375 35.085938 -66.070312 39.546875 -64.5 L 38.234375 -55.84375 C 35.660156 -56.90625 33.507812 -57.625 31.78125 -58 C 30.050781 -58.382812 28.117188 -58.578125 25.984375 -58.578125 C 22.285156 -58.578125 19.429688 -57.804688 17.421875 -56.265625 C 15.410156 -54.722656 14.40625 -52.570312 14.40625 -49.8125 C 14.40625 -47.550781 15.269531 -45.648438 17 -44.109375 C 18.726562 -42.578125 21.285156 -41.023438 24.671875 -39.453125 L 26.75 -38.421875 C 30.070312 -36.785156 32.785156 -35.226562 34.890625 -33.75 C 36.992188 -32.28125 38.8125 -30.289062 40.34375 -27.78125 C 41.882812 -25.269531 42.65625 -22.160156 42.65625 -18.453125 C 42.65625 -12.179688 40.535156 -7.347656 36.296875 -3.953125 C 32.066406 -0.566406 26.210938 1.125 18.734375 1.125 C 16.535156 1.125 14.445312 0.90625 12.46875 0.46875 C 10.5 0.03125 8.066406 -0.65625 5.171875 -1.59375 L 6.125 -10.359375 C 8.445312 -9.421875 10.832031 -8.648438 13.28125 -8.046875 C 15.726562 -7.453125 17.894531 -7.15625 19.78125 -7.15625 Z M 19.78125 -7.15625 "/></g></g></g><g fill="#2b2b2b" fill-opacity="0.4"><g transform="translate(154.474814, 103.299598)"><g><path d="M 16.015625 -48.03125 L 16.015625 -41.25 L 16.203125 -41.25 C 17.890625 -43.695312 20.175781 -45.625 23.0625 -47.03125 C 25.957031 -48.445312 29.097656 -49.15625 32.484375 -49.15625 C 36.816406 -49.15625 40.550781 -48.085938 43.6875 -45.953125 C 46.832031 -43.816406 49.203125 -40.910156 50.796875 -37.234375 C 52.398438 -33.566406 53.203125 -29.441406 53.203125 -24.859375 C 53.203125 -20.148438 52.445312 -15.832031 50.9375 -11.90625 C 49.4375 -7.988281 47.128906 -4.835938 44.015625 -2.453125 C 40.910156 -0.0664062 37.097656 1.125 32.578125 1.125 C 25.109375 1.125 19.773438 -1.445312 16.578125 -6.59375 L 16.390625 -6.59375 L 16.390625 19.78125 L 7.53125 19.78125 L 7.53125 -48.03125 Z M 43.796875 -24.296875 C 43.796875 -30.128906 42.550781 -34.535156 40.0625 -37.515625 C 37.582031 -40.503906 34.460938 -42 30.703125 -42 C 27.691406 -42 25.101562 -41.148438 22.9375 -39.453125 C 20.769531 -37.765625 19.132812 -35.535156 18.03125 -32.765625 C 16.9375 -30.003906 16.390625 -27.054688 16.390625 -23.921875 C 16.390625 -20.972656 16.90625 -18.113281 17.9375 -15.34375 C 18.976562 -12.582031 20.5625 -10.335938 22.6875 -8.609375 C 24.820312 -6.890625 27.429688 -6.03125 30.515625 -6.03125 C 33.210938 -6.03125 35.566406 -6.859375 37.578125 -8.515625 C 39.585938 -10.179688 41.125 -12.410156 42.1875 -15.203125 C 43.257812 -18.003906 43.796875 -21.035156 43.796875 -24.296875 Z M 43.796875 -24.296875 "/></g></g></g><g fill="#2b2b2b" fill-opacity="0.4"><g transform="translate(208.24251, 103.299598)"><g><path d="M 36.828125 -6.21875 C 35.128906 -3.832031 32.992188 -2.007812 30.421875 -0.75 C 27.847656 0.5 24.988281 1.125 21.84375 1.125 C 16.257812 1.125 11.941406 -0.160156 8.890625 -2.734375 C 5.847656 -5.304688 4.328125 -9.007812 4.328125 -13.84375 C 4.328125 -18.800781 6.445312 -22.675781 10.6875 -25.46875 C 14.925781 -28.269531 20.46875 -29.671875 27.3125 -29.671875 C 30.507812 -29.671875 33.425781 -29.601562 36.0625 -29.46875 C 36.0625 -33.863281 35.132812 -37.050781 33.28125 -39.03125 C 31.4375 -41.007812 28.410156 -42 24.203125 -42 C 21.753906 -42 19.289062 -41.570312 16.8125 -40.71875 C 14.332031 -39.875 12.148438 -38.671875 10.265625 -37.109375 L 9.796875 -44.640625 C 14.878906 -47.648438 20.148438 -49.15625 25.609375 -49.15625 C 32.203125 -49.15625 37.066406 -47.550781 40.203125 -44.34375 C 43.347656 -41.144531 44.921875 -36.15625 44.921875 -29.375 L 44.921875 -8.28125 C 44.921875 -4.769531 45.046875 -2.007812 45.296875 0 L 37.015625 0 L 37.015625 -6.21875 Z M 30.328125 -23.078125 C 25.171875 -23.078125 21.117188 -22.289062 18.171875 -20.71875 C 15.222656 -19.144531 13.75 -16.851562 13.75 -13.84375 C 13.75 -11.582031 14.640625 -9.710938 16.421875 -8.234375 C 18.210938 -6.765625 20.335938 -6.03125 22.796875 -6.03125 C 26.867188 -6.03125 30.097656 -7.191406 32.484375 -9.515625 C 34.867188 -11.835938 36.0625 -14.878906 36.0625 -18.640625 L 36.0625 -22.890625 C 35.625 -22.890625 34.835938 -22.921875 33.703125 -22.984375 C 32.578125 -23.046875 31.453125 -23.078125 30.328125 -23.078125 Z M 30.328125 -23.078125 "/></g></g></g><g fill="#ff6c00" fill-opacity="1"><g transform="translate(111.159431, 103.299598)"><g><path d="M 19.78125 -7.15625 C 23.164062 -7.15625 26.160156 -8.097656 28.765625 -9.984375 C 31.367188 -11.867188 32.671875 -14.503906 32.671875 -17.890625 C 32.671875 -20.398438 31.789062 -22.582031 30.03125 -24.4375 C 28.28125 -26.289062 24.925781 -28.347656 19.96875 -30.609375 C 16.632812 -32.109375 13.882812 -33.613281 11.71875 -35.125 C 9.550781 -36.632812 7.789062 -38.503906 6.4375 -40.734375 C 5.09375 -42.960938 4.421875 -45.707031 4.421875 -48.96875 C 4.421875 -54.425781 6.335938 -58.769531 10.171875 -62 C 14.003906 -65.238281 19.117188 -66.859375 25.515625 -66.859375 C 30.410156 -66.859375 35.085938 -66.070312 39.546875 -64.5 L 38.234375 -55.84375 C 35.660156 -56.90625 33.507812 -57.625 31.78125 -58 C 30.050781 -58.382812 28.117188 -58.578125 25.984375 -58.578125 C 22.285156 -58.578125 19.429688 -57.804688 17.421875 -56.265625 C 15.410156 -54.722656 14.40625 -52.570312 14.40625 -49.8125 C 14.40625 -47.550781 15.269531 -45.648438 17 -44.109375 C 18.726562 -42.578125 21.285156 -41.023438 24.671875 -39.453125 L 26.75 -38.421875 C 30.070312 -36.785156 32.785156 -35.226562 34.890625 -33.75 C 36.992188 -32.28125 38.8125 -30.289062 40.34375 -27.78125 C 41.882812 -25.269531 42.65625 -22.160156 42.65625 -18.453125 C 42.65625 -12.179688 40.535156 -7.347656 36.296875 -3.953125 C 32.066406 -0.566406 26.210938 1.125 18.734375 1.125 C 16.535156 1.125 14.445312 0.90625 12.46875 0.46875 C 10.5 0.03125 8.066406 -0.65625 5.171875 -1.59375 L 6.125 -10.359375 C 8.445312 -9.421875 10.832031 -8.648438 13.28125 -8.046875 C 15.726562 -7.453125 17.894531 -7.15625 19.78125 -7.15625 Z M 19.78125 -7.15625 "/></g></g></g><g fill="#ff6c00" fill-opacity="1"><g transform="translate(154.474814, 103.299598)"><g><path d="M 16.015625 -48.03125 L 16.015625 -41.25 L 16.203125 -41.25 C 17.890625 -43.695312 20.175781 -45.625 23.0625 -47.03125 C 25.957031 -48.445312 29.097656 -49.15625 32.484375 -49.15625 C 36.816406 -49.15625 40.550781 -48.085938 43.6875 -45.953125 C 46.832031 -43.816406 49.203125 -40.910156 50.796875 -37.234375 C 52.398438 -33.566406 53.203125 -29.441406 53.203125 -24.859375 C 53.203125 -20.148438 52.445312 -15.832031 50.9375 -11.90625 C 49.4375 -7.988281 47.128906 -4.835938 44.015625 -2.453125 C 40.910156 -0.0664062 37.097656 1.125 32.578125 1.125 C 25.109375 1.125 19.773438 -1.445312 16.578125 -6.59375 L 16.390625 -6.59375 L 16.390625 19.78125 L 7.53125 19.78125 L 7.53125 -48.03125 Z M 43.796875 -24.296875 C 43.796875 -30.128906 42.550781 -34.535156 40.0625 -37.515625 C 37.582031 -40.503906 34.460938 -42 30.703125 -42 C 27.691406 -42 25.101562 -41.148438 22.9375 -39.453125 C 20.769531 -37.765625 19.132812 -35.535156 18.03125 -32.765625 C 16.9375 -30.003906 16.390625 -27.054688 16.390625 -23.921875 C 16.390625 -20.972656 16.90625 -18.113281 17.9375 -15.34375 C 18.976562 -12.582031 20.5625 -10.335938 22.6875 -8.609375 C 24.820312 -6.890625 27.429688 -6.03125 30.515625 -6.03125 C 33.210938 -6.03125 35.566406 -6.859375 37.578125 -8.515625 C 39.585938 -10.179688 41.125 -12.410156 42.1875 -15.203125 C 43.257812 -18.003906 43.796875 -21.035156 43.796875 -24.296875 Z M 43.796875 -24.296875 "/></g></g></g><g fill="#ff6c00" fill-opacity="1"><g transform="translate(208.24251, 103.299598)"><g><path d="M 36.828125 -6.21875 C 35.128906 -3.832031 32.992188 -2.007812 30.421875 -0.75 C 27.847656 0.5 24.988281 1.125 21.84375 1.125 C 16.257812 1.125 11.941406 -0.160156 8.890625 -2.734375 C 5.847656 -5.304688 4.328125 -9.007812 4.328125 -13.84375 C 4.328125 -18.800781 6.445312 -22.675781 10.6875 -25.46875 C 14.925781 -28.269531 20.46875 -29.671875 27.3125 -29.671875 C 30.507812 -29.671875 33.425781 -29.601562 36.0625 -29.46875 C 36.0625 -33.863281 35.132812 -37.050781 33.28125 -39.03125 C 31.4375 -41.007812 28.410156 -42 24.203125 -42 C 21.753906 -42 19.289062 -41.570312 16.8125 -40.71875 C 14.332031 -39.875 12.148438 -38.671875 10.265625 -37.109375 L 9.796875 -44.640625 C 14.878906 -47.648438 20.148438 -49.15625 25.609375 -49.15625 C 32.203125 -49.15625 37.066406 -47.550781 40.203125 -44.34375 C 43.347656 -41.144531 44.921875 -36.15625 44.921875 -29.375 L 44.921875 -8.28125 C 44.921875 -4.769531 45.046875 -2.007812 45.296875 0 L 37.015625 0 L 37.015625 -6.21875 Z M 30.328125 -23.078125 C 25.171875 -23.078125 21.117188 -22.289062 18.171875 -20.71875 C 15.222656 -19.144531 13.75 -16.851562 13.75 -13.84375 C 13.75 -11.582031 14.640625 -9.710938 16.421875 -8.234375 C 18.210938 -6.765625 20.335938 -6.03125 22.796875 -6.03125 C 26.867188 -6.03125 30.097656 -7.191406 32.484375 -9.515625 C 34.867188 -11.835938 36.0625 -14.878906 36.0625 -18.640625 L 36.0625 -22.890625 C 35.625 -22.890625 34.835938 -22.921875 33.703125 -22.984375 C 32.578125 -23.046875 31.453125 -23.078125 30.328125 -23.078125 Z M 30.328125 -23.078125 "/></g></g></g><g fill="#2b2b2b" fill-opacity="0.4"><g transform="translate(256.840154, 103.299598)"><g><path d="M 17.703125 -16.578125 L 11.015625 0 L 1.125 0 L 29.1875 -65.734375 L 39.078125 -65.734375 L 66.859375 0 L 56.59375 0 L 49.90625 -16.578125 Z M 46.890625 -24.296875 L 33.8125 -56.875 L 20.71875 -24.296875 Z M 46.890625 -24.296875 "/></g></g></g><g fill="#2b2b2b" fill-opacity="0.4"><g transform="translate(321.060145, 103.299598)"><g><path d="M 41.34375 -6.78125 C 39.707031 -4.332031 37.445312 -2.398438 34.5625 -0.984375 C 31.675781 0.421875 28.472656 1.125 24.953125 1.125 C 20.429688 1.125 16.617188 -0.0664062 13.515625 -2.453125 C 10.410156 -4.835938 8.101562 -7.988281 6.59375 -11.90625 C 5.082031 -15.832031 4.328125 -20.148438 4.328125 -24.859375 C 4.328125 -29.316406 5.113281 -33.378906 6.6875 -37.046875 C 8.257812 -40.722656 10.597656 -43.660156 13.703125 -45.859375 C 16.804688 -48.054688 20.585938 -49.15625 25.046875 -49.15625 C 32.515625 -49.15625 37.820312 -46.582031 40.96875 -41.4375 L 41.15625 -41.4375 L 41.15625 -70.625 L 50 -70.625 L 50 0 L 41.53125 0 L 41.53125 -6.78125 Z M 41.15625 -23.921875 C 41.15625 -26.929688 40.632812 -29.816406 39.59375 -32.578125 C 38.5625 -35.347656 36.976562 -37.609375 34.84375 -39.359375 C 32.707031 -41.117188 30.039062 -42 26.84375 -42 C 22.632812 -42 19.398438 -40.363281 17.140625 -37.09375 C 14.878906 -33.832031 13.75 -29.691406 13.75 -24.671875 C 13.75 -19.273438 14.957031 -14.816406 17.375 -11.296875 C 19.789062 -7.785156 23.007812 -6.03125 27.03125 -6.03125 C 30.101562 -6.03125 32.707031 -6.90625 34.84375 -8.65625 C 36.976562 -10.414062 38.5625 -12.660156 39.59375 -15.390625 C 40.632812 -18.128906 41.15625 -20.972656 41.15625 -23.921875 Z M 41.15625 -23.921875 "/></g></g></g><g fill="#2b2b2b" fill-opacity="0.4"><g transform="translate(374.827841, 103.299598)"><g><path d="M 10.734375 -48.03125 L 23.734375 -8.859375 L 23.921875 -8.859375 L 37.203125 -48.03125 L 46.046875 -48.03125 L 28.8125 0 L 18.265625 0 L 1.03125 -48.03125 Z M 10.734375 -48.03125 "/></g></g></g><g fill="#2b2b2b" fill-opacity="0.4"><g transform="translate(418.143223, 103.299598)"><g><path d="M 18.078125 -68.75 L 18.078125 -58.765625 L 8.09375 -58.765625 L 8.09375 -68.75 Z M 17.515625 -48.03125 L 17.515625 0 L 8.65625 0 L 8.65625 -48.03125 Z M 17.515625 -48.03125 "/></g></g></g><g fill="#2b2b2b" fill-opacity="0.4"><g transform="translate(440.553979, 103.299598)"><g><path d="M 14.96875 -6.03125 C 17.539062 -6.03125 19.691406 -6.609375 21.421875 -7.765625 C 23.148438 -8.929688 24.015625 -10.644531 24.015625 -12.90625 C 24.015625 -14.34375 23.382812 -15.6875 22.125 -16.9375 C 20.875 -18.195312 18.613281 -19.550781 15.34375 -21 C 10.695312 -23.070312 7.507812 -25.160156 5.78125 -27.265625 C 4.0625 -29.367188 3.203125 -31.769531 3.203125 -34.46875 C 3.203125 -39.238281 4.785156 -42.878906 7.953125 -45.390625 C 11.128906 -47.898438 15.195312 -49.15625 20.15625 -49.15625 C 22.039062 -49.15625 23.828125 -49 25.515625 -48.6875 C 27.210938 -48.375 29.097656 -47.90625 31.171875 -47.28125 L 30.421875 -39.546875 C 29.535156 -40.117188 28.039062 -40.671875 25.9375 -41.203125 C 23.84375 -41.734375 22.226562 -42 21.09375 -42 C 18.582031 -42 16.539062 -41.476562 14.96875 -40.4375 C 13.40625 -39.40625 12.625 -37.976562 12.625 -36.15625 C 12.625 -34.34375 13.34375 -32.820312 14.78125 -31.59375 C 16.226562 -30.375 18.613281 -29.039062 21.9375 -27.59375 C 26.082031 -25.769531 29.035156 -23.820312 30.796875 -21.75 C 32.554688 -19.675781 33.4375 -17.039062 33.4375 -13.84375 C 33.4375 -9.320312 31.894531 -5.695312 28.8125 -2.96875 C 25.738281 -0.238281 21.660156 1.125 16.578125 1.125 C 11.109375 1.125 6.742188 0.25 3.484375 -1.5 L 3.953125 -9.421875 C 5.398438 -8.472656 7.207031 -7.671875 9.375 -7.015625 C 11.539062 -6.359375 13.40625 -6.03125 14.96875 -6.03125 Z M 14.96875 -6.03125 "/></g></g></g><g fill="#2b2b2b" fill-opacity="0.4"><g transform="translate(473.417057, 103.299598)"><g><path d="M 4.328125 -24.015625 C 4.328125 -28.847656 5.347656 -33.175781 7.390625 -37 C 9.429688 -40.832031 12.300781 -43.816406 16 -45.953125 C 19.707031 -48.085938 23.976562 -49.15625 28.8125 -49.15625 C 33.457031 -49.15625 37.628906 -48.101562 41.328125 -46 C 45.035156 -43.894531 47.941406 -40.941406 50.046875 -37.140625 C 52.148438 -33.347656 53.203125 -28.972656 53.203125 -24.015625 C 53.203125 -19.492188 52.179688 -15.316406 50.140625 -11.484375 C 48.097656 -7.660156 45.207031 -4.601562 41.46875 -2.3125 C 37.738281 -0.0195312 33.488281 1.125 28.71875 1.125 C 24.132812 1.125 19.972656 0.0078125 16.234375 -2.21875 C 12.503906 -4.445312 9.585938 -7.488281 7.484375 -11.34375 C 5.378906 -15.207031 4.328125 -19.429688 4.328125 -24.015625 Z M 43.796875 -24.015625 C 43.796875 -27.210938 43.179688 -30.191406 41.953125 -32.953125 C 40.722656 -35.722656 38.960938 -37.921875 36.671875 -39.546875 C 34.390625 -41.179688 31.738281 -42 28.71875 -42 C 25.769531 -42 23.148438 -41.148438 20.859375 -39.453125 C 18.566406 -37.765625 16.804688 -35.550781 15.578125 -32.8125 C 14.359375 -30.082031 13.75 -27.148438 13.75 -24.015625 C 13.75 -20.816406 14.328125 -17.847656 15.484375 -15.109375 C 16.648438 -12.378906 18.363281 -10.179688 20.625 -8.515625 C 22.882812 -6.859375 25.613281 -6.03125 28.8125 -6.03125 C 31.957031 -6.03125 34.660156 -6.859375 36.921875 -8.515625 C 39.179688 -10.179688 40.890625 -12.378906 42.046875 -15.109375 C 43.210938 -17.847656 43.796875 -20.816406 43.796875 -24.015625 Z M 43.796875 -24.015625 "/></g></g></g><g fill="#2b2b2b" fill-opacity="0.4"><g transform="translate(527.184763, 103.299598)"><g><path d="M 15.828125 -48.03125 L 15.828125 -40.59375 L 16.015625 -40.59375 C 17.203125 -43.164062 18.957031 -45.234375 21.28125 -46.796875 C 23.601562 -48.367188 26.050781 -49.15625 28.625 -49.15625 C 30.445312 -49.15625 32.363281 -48.9375 34.375 -48.5 L 34.375 -40.59375 C 32.988281 -41.15625 31.351562 -41.4375 29.46875 -41.4375 C 25.457031 -41.4375 22.273438 -39.644531 19.921875 -36.0625 C 17.566406 -32.488281 16.390625 -27.75 16.390625 -21.84375 L 16.390625 0 L 7.53125 0 L 7.53125 -48.03125 Z M 15.828125 -48.03125 "/></g></g></g><g fill="#1274c0" fill-opacity="1"><g transform="translate(256.840154, 103.299598)"><g><path d="M 17.703125 -16.578125 L 11.015625 0 L 1.125 0 L 29.1875 -65.734375 L 39.078125 -65.734375 L 66.859375 0 L 56.59375 0 L 49.90625 -16.578125 Z M 46.890625 -24.296875 L 33.8125 -56.875 L 20.71875 -24.296875 Z M 46.890625 -24.296875 "/></g></g></g><g fill="#1274c0" fill-opacity="1"><g transform="translate(321.060145, 103.299598)"><g><path d="M 41.34375 -6.78125 C 39.707031 -4.332031 37.445312 -2.398438 34.5625 -0.984375 C 31.675781 0.421875 28.472656 1.125 24.953125 1.125 C 20.429688 1.125 16.617188 -0.0664062 13.515625 -2.453125 C 10.410156 -4.835938 8.101562 -7.988281 6.59375 -11.90625 C 5.082031 -15.832031 4.328125 -20.148438 4.328125 -24.859375 C 4.328125 -29.316406 5.113281 -33.378906 6.6875 -37.046875 C 8.257812 -40.722656 10.597656 -43.660156 13.703125 -45.859375 C 16.804688 -48.054688 20.585938 -49.15625 25.046875 -49.15625 C 32.515625 -49.15625 37.820312 -46.582031 40.96875 -41.4375 L 41.15625 -41.4375 L 41.15625 -70.625 L 50 -70.625 L 50 0 L 41.53125 0 L 41.53125 -6.78125 Z M 41.15625 -23.921875 C 41.15625 -26.929688 40.632812 -29.816406 39.59375 -32.578125 C 38.5625 -35.347656 36.976562 -37.609375 34.84375 -39.359375 C 32.707031 -41.117188 30.039062 -42 26.84375 -42 C 22.632812 -42 19.398438 -40.363281 17.140625 -37.09375 C 14.878906 -33.832031 13.75 -29.691406 13.75 -24.671875 C 13.75 -19.273438 14.957031 -14.816406 17.375 -11.296875 C 19.789062 -7.785156 23.007812 -6.03125 27.03125 -6.03125 C 30.101562 -6.03125 32.707031 -6.90625 34.84375 -8.65625 C 36.976562 -10.414062 38.5625 -12.660156 39.59375 -15.390625 C 40.632812 -18.128906 41.15625 -20.972656 41.15625 -23.921875 Z M 41.15625 -23.921875 "/></g></g></g><g fill="#1274c0" fill-opacity="1"><g transform="translate(374.827841, 103.299598)"><g><path d="M 10.734375 -48.03125 L 23.734375 -8.859375 L 23.921875 -8.859375 L 37.203125 -48.03125 L 46.046875 -48.03125 L 28.8125 0 L 18.265625 0 L 1.03125 -48.03125 Z M 10.734375 -48.03125 "/></g></g></g><g fill="#1274c0" fill-opacity="1"><g transform="translate(418.143223, 103.299598)"><g><path d="M 18.078125 -68.75 L 18.078125 -58.765625 L 8.09375 -58.765625 L 8.09375 -68.75 Z M 17.515625 -48.03125 L 17.515625 0 L 8.65625 0 L 8.65625 -48.03125 Z M 17.515625 -48.03125 "/></g></g></g><g fill="#1274c0" fill-opacity="1"><g transform="translate(440.553979, 103.299598)"><g><path d="M 14.96875 -6.03125 C 17.539062 -6.03125 19.691406 -6.609375 21.421875 -7.765625 C 23.148438 -8.929688 24.015625 -10.644531 24.015625 -12.90625 C 24.015625 -14.34375 23.382812 -15.6875 22.125 -16.9375 C 20.875 -18.195312 18.613281 -19.550781 15.34375 -21 C 10.695312 -23.070312 7.507812 -25.160156 5.78125 -27.265625 C 4.0625 -29.367188 3.203125 -31.769531 3.203125 -34.46875 C 3.203125 -39.238281 4.785156 -42.878906 7.953125 -45.390625 C 11.128906 -47.898438 15.195312 -49.15625 20.15625 -49.15625 C 22.039062 -49.15625 23.828125 -49 25.515625 -48.6875 C 27.210938 -48.375 29.097656 -47.90625 31.171875 -47.28125 L 30.421875 -39.546875 C 29.535156 -40.117188 28.039062 -40.671875 25.9375 -41.203125 C 23.84375 -41.734375 22.226562 -42 21.09375 -42 C 18.582031 -42 16.539062 -41.476562 14.96875 -40.4375 C 13.40625 -39.40625 12.625 -37.976562 12.625 -36.15625 C 12.625 -34.34375 13.34375 -32.820312 14.78125 -31.59375 C 16.226562 -30.375 18.613281 -29.039062 21.9375 -27.59375 C 26.082031 -25.769531 29.035156 -23.820312 30.796875 -21.75 C 32.554688 -19.675781 33.4375 -17.039062 33.4375 -13.84375 C 33.4375 -9.320312 31.894531 -5.695312 28.8125 -2.96875 C 25.738281 -0.238281 21.660156 1.125 16.578125 1.125 C 11.109375 1.125 6.742188 0.25 3.484375 -1.5 L 3.953125 -9.421875 C 5.398438 -8.472656 7.207031 -7.671875 9.375 -7.015625 C 11.539062 -6.359375 13.40625 -6.03125 14.96875 -6.03125 Z M 14.96875 -6.03125 "/></g></g></g><g fill="#1274c0" fill-opacity="1"><g transform="translate(473.417057, 103.299598)"><g><path d="M 4.328125 -24.015625 C 4.328125 -28.847656 5.347656 -33.175781 7.390625 -37 C 9.429688 -40.832031 12.300781 -43.816406 16 -45.953125 C 19.707031 -48.085938 23.976562 -49.15625 28.8125 -49.15625 C 33.457031 -49.15625 37.628906 -48.101562 41.328125 -46 C 45.035156 -43.894531 47.941406 -40.941406 50.046875 -37.140625 C 52.148438 -33.347656 53.203125 -28.972656 53.203125 -24.015625 C 53.203125 -19.492188 52.179688 -15.316406 50.140625 -11.484375 C 48.097656 -7.660156 45.207031 -4.601562 41.46875 -2.3125 C 37.738281 -0.0195312 33.488281 1.125 28.71875 1.125 C 24.132812 1.125 19.972656 0.0078125 16.234375 -2.21875 C 12.503906 -4.445312 9.585938 -7.488281 7.484375 -11.34375 C 5.378906 -15.207031 4.328125 -19.429688 4.328125 -24.015625 Z M 43.796875 -24.015625 C 43.796875 -27.210938 43.179688 -30.191406 41.953125 -32.953125 C 40.722656 -35.722656 38.960938 -37.921875 36.671875 -39.546875 C 34.390625 -41.179688 31.738281 -42 28.71875 -42 C 25.769531 -42 23.148438 -41.148438 20.859375 -39.453125 C 18.566406 -37.765625 16.804688 -35.550781 15.578125 -32.8125 C 14.359375 -30.082031 13.75 -27.148438 13.75 -24.015625 C 13.75 -20.816406 14.328125 -17.847656 15.484375 -15.109375 C 16.648438 -12.378906 18.363281 -10.179688 20.625 -8.515625 C 22.882812 -6.859375 25.613281 -6.03125 28.8125 -6.03125 C 31.957031 -6.03125 34.660156 -6.859375 36.921875 -8.515625 C 39.179688 -10.179688 40.890625 -12.378906 42.046875 -15.109375 C 43.210938 -17.847656 43.796875 -20.816406 43.796875 -24.015625 Z M 43.796875 -24.015625 "/></g></g></g><g fill="#1274c0" fill-opacity="1"><g transform="translate(527.184763, 103.299598)"><g><path d="M 15.828125 -48.03125 L 15.828125 -40.59375 L 16.015625 -40.59375 C 17.203125 -43.164062 18.957031 -45.234375 21.28125 -46.796875 C 23.601562 -48.367188 26.050781 -49.15625 28.625 -49.15625 C 30.445312 -49.15625 32.363281 -48.9375 34.375 -48.5 L 34.375 -40.59375 C 32.988281 -41.15625 31.351562 -41.4375 29.46875 -41.4375 C 25.457031 -41.4375 22.273438 -39.644531 19.921875 -36.0625 C 17.566406 -32.488281 16.390625 -27.75 16.390625 -21.84375 L 16.390625 0 L 7.53125 0 L 7.53125 -48.03125 Z M 15.828125 -48.03125 "/></g></g></g></svg>