<svg xmlns="http://www.w3.org/2000/svg" xmlns:xlink="http://www.w3.org/1999/xlink" width="900" zoomAndPan="magnify" viewBox="0 0 675 142.499996" height="190" preserveAspectRatio="xMidYMid meet" version="1.0"><defs><g/><clipPath id="87689769cc"><path d="M 1.179688 0 L 673.820312 0 L 673.820312 142 L 1.179688 142 Z M 1.179688 0 " clip-rule="nonzero"/></clipPath><clipPath id="efa65d8138"><path d="M 191 0 L 359 0 L 359 142 L 191 142 Z M 191 0 " clip-rule="nonzero"/></clipPath></defs><g clip-path="url(#87689769cc)"><path fill="#ffffff" d="M 1.179688 0 L 673.820312 0 L 673.820312 142 L 1.179688 142 Z M 1.179688 0 " fill-opacity="1" fill-rule="nonzero"/><path fill="#ffffff" d="M 1.179688 0 L 673.820312 0 L 673.820312 142 L 1.179688 142 Z M 1.179688 0 " fill-opacity="1" fill-rule="nonzero"/></g><g fill="#2b2b2b" fill-opacity="0.4"><g transform="translate(141.38048, 107.070605)"><g><path d="M 27.21875 1.421875 L 27.21875 0.953125 C 29.519531 -0.160156 31.164062 -2.003906 32.15625 -4.578125 C 33.144531 -7.148438 33.640625 -9.664062 33.640625 -12.125 C 33.640625 -15.21875 32.90625 -17.675781 31.4375 -19.5 C 29.96875 -21.320312 28.066406 -22.804688 25.734375 -23.953125 C 23.398438 -25.097656 20.90625 -26.203125 18.25 -27.265625 C 15.59375 -28.335938 13.09375 -29.609375 10.75 -31.078125 C 8.414062 -32.546875 6.515625 -34.46875 5.046875 -36.84375 C 3.585938 -39.21875 2.859375 -42.390625 2.859375 -46.359375 C 2.859375 -50.640625 4.242188 -54.382812 7.015625 -57.59375 C 9.785156 -60.800781 13.3125 -62.957031 17.59375 -64.0625 L 17.59375 -63.46875 C 15.613281 -62.675781 14.164062 -61.40625 13.25 -59.65625 C 12.34375 -57.914062 11.890625 -56.132812 11.890625 -54.3125 C 11.890625 -51.144531 12.703125 -48.570312 14.328125 -46.59375 C 15.953125 -44.613281 18.03125 -42.96875 20.5625 -41.65625 C 23.09375 -40.351562 25.785156 -39.144531 28.640625 -38.03125 C 31.492188 -36.925781 34.1875 -35.640625 36.71875 -34.171875 C 39.257812 -32.703125 41.34375 -30.835938 42.96875 -28.578125 C 44.59375 -26.328125 45.40625 -23.335938 45.40625 -19.609375 C 45.40625 -16.117188 44.59375 -12.925781 42.96875 -10.03125 C 41.34375 -7.144531 39.160156 -4.710938 36.421875 -2.734375 C 33.691406 -0.753906 30.625 0.628906 27.21875 1.421875 Z M 34.34375 -47.3125 C 32.363281 -47.3125 30.640625 -48.019531 29.171875 -49.4375 C 27.710938 -50.863281 26.984375 -52.570312 26.984375 -54.5625 C 26.984375 -56.613281 27.710938 -58.351562 29.171875 -59.78125 C 30.640625 -61.207031 32.363281 -61.921875 34.34375 -61.921875 C 36.40625 -61.921875 38.128906 -61.207031 39.515625 -59.78125 C 40.898438 -58.351562 41.59375 -56.613281 41.59375 -54.5625 C 41.59375 -52.570312 40.898438 -50.863281 39.515625 -49.4375 C 38.128906 -48.019531 36.40625 -47.3125 34.34375 -47.3125 Z M 9.75 -4.640625 C 7.6875 -4.640625 5.941406 -5.351562 4.515625 -6.78125 C 3.085938 -8.207031 2.375 -9.910156 2.375 -11.890625 C 2.375 -13.941406 3.085938 -15.679688 4.515625 -17.109375 C 5.941406 -18.535156 7.6875 -19.25 9.75 -19.25 C 11.726562 -19.25 13.410156 -18.535156 14.796875 -17.109375 C 16.179688 -15.679688 16.875 -13.941406 16.875 -11.890625 C 16.875 -9.910156 16.179688 -8.207031 14.796875 -6.78125 C 13.410156 -5.351562 11.726562 -4.640625 9.75 -4.640625 Z M 9.75 -4.640625 "/></g></g></g><g fill="#2b2b2b" fill-opacity="0.4"><g transform="translate(184.285259, 107.070605)"><g><path d="M 27.21875 1.1875 C 28.800781 0.238281 30.046875 -1.757812 30.953125 -4.8125 C 31.867188 -7.863281 32.328125 -12.757812 32.328125 -19.5 C 32.328125 -26.46875 31.867188 -31.554688 30.953125 -34.765625 C 30.046875 -37.972656 28.800781 -40.050781 27.21875 -41 C 30.707031 -40.53125 33.796875 -39.300781 36.484375 -37.3125 C 39.179688 -35.332031 41.320312 -32.859375 42.90625 -29.890625 C 44.488281 -26.921875 45.28125 -23.65625 45.28125 -20.09375 C 45.28125 -20.007812 45.28125 -19.925781 45.28125 -19.84375 C 45.28125 -19.769531 45.28125 -19.734375 45.28125 -19.734375 C 45.28125 -16.242188 44.488281 -13.015625 42.90625 -10.046875 C 41.320312 -7.078125 39.179688 -4.597656 36.484375 -2.609375 C 33.796875 -0.628906 30.707031 0.632812 27.21875 1.1875 Z M 4.984375 23.0625 L 4.984375 -39.578125 L 19.734375 -39.578125 L 19.734375 23.0625 Z M 4.984375 23.0625 "/></g></g></g><g fill="#2b2b2b" fill-opacity="0.4"><g transform="translate(227.427738, 107.070605)"><g><path d="M 25.671875 0 L 25.671875 -31.015625 C 25.671875 -32.921875 25.253906 -34.46875 24.421875 -35.65625 C 23.585938 -36.84375 22.65625 -37.734375 21.625 -38.328125 C 20.601562 -38.921875 19.675781 -39.335938 18.84375 -39.578125 C 18.007812 -39.816406 17.59375 -39.9375 17.59375 -39.9375 C 22.5 -41.039062 26.632812 -41.019531 30 -39.875 C 33.375 -38.726562 35.929688 -36.90625 37.671875 -34.40625 C 39.421875 -31.914062 40.296875 -29.203125 40.296875 -26.265625 L 40.296875 0 Z M 11.640625 -23.765625 C 9.660156 -23.765625 7.957031 -24.476562 6.53125 -25.90625 C 5.101562 -27.332031 4.390625 -29.035156 4.390625 -31.015625 C 4.390625 -33.003906 5.101562 -34.691406 6.53125 -36.078125 C 7.957031 -37.460938 9.660156 -38.15625 11.640625 -38.15625 C 13.628906 -38.15625 15.335938 -37.460938 16.765625 -36.078125 C 18.191406 -34.691406 18.90625 -33.003906 18.90625 -31.015625 C 18.90625 -29.035156 18.191406 -27.332031 16.765625 -25.90625 C 15.335938 -24.476562 13.628906 -23.765625 11.640625 -23.765625 Z M 15.578125 1.0625 C 13.828125 1.382812 12.0625 1.445312 10.28125 1.25 C 8.5 1.050781 6.972656 0.316406 5.703125 -0.953125 C 4.203125 -2.535156 3.351562 -4.472656 3.15625 -6.765625 C 2.957031 -9.066406 3.367188 -11.128906 4.390625 -12.953125 C 5.347656 -14.773438 6.695312 -16.300781 8.4375 -17.53125 C 10.175781 -18.757812 12.039062 -19.691406 14.03125 -20.328125 C 15.0625 -20.640625 16.070312 -20.832031 17.0625 -20.90625 C 18.050781 -20.988281 19.0625 -21.03125 20.09375 -21.03125 C 19.132812 -20.238281 18.160156 -19.070312 17.171875 -17.53125 C 16.179688 -15.988281 15.445312 -14.304688 14.96875 -12.484375 C 14.5 -10.660156 14.5 -8.835938 14.96875 -7.015625 C 15.445312 -5.265625 16.457031 -3.914062 18 -2.96875 C 19.550781 -2.019531 21.195312 -1.703125 22.9375 -2.015625 C 21.988281 -1.222656 20.820312 -0.566406 19.4375 -0.046875 C 18.050781 0.460938 16.765625 0.832031 15.578125 1.0625 Z M 15.578125 1.0625 "/></g></g></g><g fill="#ff6c00" fill-opacity="1"><g transform="translate(141.38048, 107.070605)"><g><path d="M 27.21875 1.421875 L 27.21875 0.953125 C 29.519531 -0.160156 31.164062 -2.003906 32.15625 -4.578125 C 33.144531 -7.148438 33.640625 -9.664062 33.640625 -12.125 C 33.640625 -15.21875 32.90625 -17.675781 31.4375 -19.5 C 29.96875 -21.320312 28.066406 -22.804688 25.734375 -23.953125 C 23.398438 -25.097656 20.90625 -26.203125 18.25 -27.265625 C 15.59375 -28.335938 13.09375 -29.609375 10.75 -31.078125 C 8.414062 -32.546875 6.515625 -34.46875 5.046875 -36.84375 C 3.585938 -39.21875 2.859375 -42.390625 2.859375 -46.359375 C 2.859375 -50.640625 4.242188 -54.382812 7.015625 -57.59375 C 9.785156 -60.800781 13.3125 -62.957031 17.59375 -64.0625 L 17.59375 -63.46875 C 15.613281 -62.675781 14.164062 -61.40625 13.25 -59.65625 C 12.34375 -57.914062 11.890625 -56.132812 11.890625 -54.3125 C 11.890625 -51.144531 12.703125 -48.570312 14.328125 -46.59375 C 15.953125 -44.613281 18.03125 -42.96875 20.5625 -41.65625 C 23.09375 -40.351562 25.785156 -39.144531 28.640625 -38.03125 C 31.492188 -36.925781 34.1875 -35.640625 36.71875 -34.171875 C 39.257812 -32.703125 41.34375 -30.835938 42.96875 -28.578125 C 44.59375 -26.328125 45.40625 -23.335938 45.40625 -19.609375 C 45.40625 -16.117188 44.59375 -12.925781 42.96875 -10.03125 C 41.34375 -7.144531 39.160156 -4.710938 36.421875 -2.734375 C 33.691406 -0.753906 30.625 0.628906 27.21875 1.421875 Z M 34.34375 -47.3125 C 32.363281 -47.3125 30.640625 -48.019531 29.171875 -49.4375 C 27.710938 -50.863281 26.984375 -52.570312 26.984375 -54.5625 C 26.984375 -56.613281 27.710938 -58.351562 29.171875 -59.78125 C 30.640625 -61.207031 32.363281 -61.921875 34.34375 -61.921875 C 36.40625 -61.921875 38.128906 -61.207031 39.515625 -59.78125 C 40.898438 -58.351562 41.59375 -56.613281 41.59375 -54.5625 C 41.59375 -52.570312 40.898438 -50.863281 39.515625 -49.4375 C 38.128906 -48.019531 36.40625 -47.3125 34.34375 -47.3125 Z M 9.75 -4.640625 C 7.6875 -4.640625 5.941406 -5.351562 4.515625 -6.78125 C 3.085938 -8.207031 2.375 -9.910156 2.375 -11.890625 C 2.375 -13.941406 3.085938 -15.679688 4.515625 -17.109375 C 5.941406 -18.535156 7.6875 -19.25 9.75 -19.25 C 11.726562 -19.25 13.410156 -18.535156 14.796875 -17.109375 C 16.179688 -15.679688 16.875 -13.941406 16.875 -11.890625 C 16.875 -9.910156 16.179688 -8.207031 14.796875 -6.78125 C 13.410156 -5.351562 11.726562 -4.640625 9.75 -4.640625 Z M 9.75 -4.640625 "/></g></g></g><g fill="#ff6c00" fill-opacity="1"><g transform="translate(184.285259, 107.070605)"><g><path d="M 27.21875 1.1875 C 28.800781 0.238281 30.046875 -1.757812 30.953125 -4.8125 C 31.867188 -7.863281 32.328125 -12.757812 32.328125 -19.5 C 32.328125 -26.46875 31.867188 -31.554688 30.953125 -34.765625 C 30.046875 -37.972656 28.800781 -40.050781 27.21875 -41 C 30.707031 -40.53125 33.796875 -39.300781 36.484375 -37.3125 C 39.179688 -35.332031 41.320312 -32.859375 42.90625 -29.890625 C 44.488281 -26.921875 45.28125 -23.65625 45.28125 -20.09375 C 45.28125 -20.007812 45.28125 -19.925781 45.28125 -19.84375 C 45.28125 -19.769531 45.28125 -19.734375 45.28125 -19.734375 C 45.28125 -16.242188 44.488281 -13.015625 42.90625 -10.046875 C 41.320312 -7.078125 39.179688 -4.597656 36.484375 -2.609375 C 33.796875 -0.628906 30.707031 0.632812 27.21875 1.1875 Z M 4.984375 23.0625 L 4.984375 -39.578125 L 19.734375 -39.578125 L 19.734375 23.0625 Z M 4.984375 23.0625 "/></g></g></g><g fill="#ff6c00" fill-opacity="1"><g transform="translate(227.427738, 107.070605)"><g><path d="M 25.671875 0 L 25.671875 -31.015625 C 25.671875 -32.921875 25.253906 -34.46875 24.421875 -35.65625 C 23.585938 -36.84375 22.65625 -37.734375 21.625 -38.328125 C 20.601562 -38.921875 19.675781 -39.335938 18.84375 -39.578125 C 18.007812 -39.816406 17.59375 -39.9375 17.59375 -39.9375 C 22.5 -41.039062 26.632812 -41.019531 30 -39.875 C 33.375 -38.726562 35.929688 -36.90625 37.671875 -34.40625 C 39.421875 -31.914062 40.296875 -29.203125 40.296875 -26.265625 L 40.296875 0 Z M 11.640625 -23.765625 C 9.660156 -23.765625 7.957031 -24.476562 6.53125 -25.90625 C 5.101562 -27.332031 4.390625 -29.035156 4.390625 -31.015625 C 4.390625 -33.003906 5.101562 -34.691406 6.53125 -36.078125 C 7.957031 -37.460938 9.660156 -38.15625 11.640625 -38.15625 C 13.628906 -38.15625 15.335938 -37.460938 16.765625 -36.078125 C 18.191406 -34.691406 18.90625 -33.003906 18.90625 -31.015625 C 18.90625 -29.035156 18.191406 -27.332031 16.765625 -25.90625 C 15.335938 -24.476562 13.628906 -23.765625 11.640625 -23.765625 Z M 15.578125 1.0625 C 13.828125 1.382812 12.0625 1.445312 10.28125 1.25 C 8.5 1.050781 6.972656 0.316406 5.703125 -0.953125 C 4.203125 -2.535156 3.351562 -4.472656 3.15625 -6.765625 C 2.957031 -9.066406 3.367188 -11.128906 4.390625 -12.953125 C 5.347656 -14.773438 6.695312 -16.300781 8.4375 -17.53125 C 10.175781 -18.757812 12.039062 -19.691406 14.03125 -20.328125 C 15.0625 -20.640625 16.070312 -20.832031 17.0625 -20.90625 C 18.050781 -20.988281 19.0625 -21.03125 20.09375 -21.03125 C 19.132812 -20.238281 18.160156 -19.070312 17.171875 -17.53125 C 16.179688 -15.988281 15.445312 -14.304688 14.96875 -12.484375 C 14.5 -10.660156 14.5 -8.835938 14.96875 -7.015625 C 15.445312 -5.265625 16.457031 -3.914062 18 -2.96875 C 19.550781 -2.019531 21.195312 -1.703125 22.9375 -2.015625 C 21.988281 -1.222656 20.820312 -0.566406 19.4375 -0.046875 C 18.050781 0.460938 16.765625 0.832031 15.578125 1.0625 Z M 15.578125 1.0625 "/></g></g></g><g fill="#2b2b2b" fill-opacity="0.4"><g transform="translate(267.375929, 107.070605)"><g><path d="M 34.234375 0 L 16.875 -42.4375 L 24.84375 -64.0625 L 51.578125 0 Z M 34.234375 0 "/></g></g></g><g fill="#2b2b2b" fill-opacity="0.4"><g transform="translate(316.460964, 107.070605)"><g><path d="M 28.171875 0 L 28.171875 -62.640625 L 42.796875 -62.640625 L 42.796875 0 Z M 20.5625 1.421875 C 17.15625 0.953125 14.082031 -0.269531 11.34375 -2.25 C 8.613281 -4.238281 6.457031 -6.71875 4.875 -9.6875 C 3.289062 -12.65625 2.5 -15.882812 2.5 -19.375 L 2.5 -19.5 C 2.5 -19.5 2.5 -19.554688 2.5 -19.671875 C 2.5 -19.785156 2.5 -19.84375 2.5 -19.84375 C 2.5 -23.332031 3.289062 -26.5625 4.875 -29.53125 C 6.457031 -32.507812 8.613281 -34.988281 11.34375 -36.96875 C 14.082031 -38.945312 17.15625 -40.175781 20.5625 -40.65625 C 19.050781 -39.78125 17.84375 -37.835938 16.9375 -34.828125 C 16.03125 -31.816406 15.578125 -26.90625 15.578125 -20.09375 C 15.578125 -13.113281 16.03125 -8 16.9375 -4.75 C 17.84375 -1.5 19.050781 0.554688 20.5625 1.421875 Z M 20.5625 1.421875 "/></g></g></g><g fill="#2b2b2b" fill-opacity="0.4"><g transform="translate(359.603442, 107.070605)"><g><path d="M 35.53125 -26.265625 C 33.550781 -26.265625 31.847656 -26.976562 30.421875 -28.40625 C 28.992188 -29.832031 28.28125 -31.535156 28.28125 -33.515625 C 28.28125 -35.492188 28.992188 -37.175781 30.421875 -38.5625 C 31.847656 -39.957031 33.550781 -40.65625 35.53125 -40.65625 C 37.59375 -40.65625 39.316406 -39.957031 40.703125 -38.5625 C 42.097656 -37.175781 42.796875 -35.492188 42.796875 -33.515625 C 42.796875 -31.535156 42.097656 -29.832031 40.703125 -28.40625 C 39.316406 -26.976562 37.59375 -26.265625 35.53125 -26.265625 Z M 21.28125 1.421875 L 0.953125 -39.578125 L 15.6875 -39.578125 L 28.875 -14.03125 Z M 21.28125 1.421875 "/></g></g></g><g fill="#2b2b2b" fill-opacity="0.4"><g transform="translate(398.586144, 107.070605)"><g><path d="M 12.359375 -48.375 C 10.378906 -48.375 8.675781 -49.066406 7.25 -50.453125 C 5.820312 -51.835938 5.109375 -53.519531 5.109375 -55.5 C 5.109375 -57.5625 5.820312 -59.285156 7.25 -60.671875 C 8.675781 -62.054688 10.378906 -62.75 12.359375 -62.75 C 14.335938 -62.75 16.019531 -62.054688 17.40625 -60.671875 C 18.800781 -59.285156 19.5 -57.5625 19.5 -55.5 C 19.5 -53.519531 18.800781 -51.835938 17.40625 -50.453125 C 16.019531 -49.066406 14.335938 -48.375 12.359375 -48.375 Z M 4.984375 0 L 4.984375 -39.578125 L 19.734375 -39.578125 L 19.734375 0 Z M 4.984375 0 "/></g></g></g><g fill="#2b2b2b" fill-opacity="0.4"><g transform="translate(418.552664, 107.070605)"><g><path d="M 19.734375 1.421875 C 22.585938 -0.710938 24.015625 -3.5625 24.015625 -7.125 C 24.015625 -9.269531 23.300781 -10.972656 21.875 -12.234375 C 20.445312 -13.503906 18.703125 -14.578125 16.640625 -15.453125 C 14.578125 -16.328125 12.492188 -17.257812 10.390625 -18.25 C 8.296875 -19.238281 6.535156 -20.523438 5.109375 -22.109375 C 3.679688 -23.691406 2.96875 -25.789062 2.96875 -28.40625 C 2.96875 -30.3125 3.582031 -32.191406 4.8125 -34.046875 C 6.039062 -35.910156 7.742188 -37.457031 9.921875 -38.6875 C 12.097656 -39.914062 14.613281 -40.53125 17.46875 -40.53125 C 15.007812 -38.625 13.78125 -36.601562 13.78125 -34.46875 C 13.78125 -32.164062 14.515625 -30.359375 15.984375 -29.046875 C 17.453125 -27.742188 19.273438 -26.617188 21.453125 -25.671875 C 23.628906 -24.722656 25.804688 -23.734375 27.984375 -22.703125 C 30.171875 -21.671875 31.992188 -20.320312 33.453125 -18.65625 C 34.921875 -17 35.65625 -14.742188 35.65625 -11.890625 C 35.65625 -9.671875 34.921875 -7.53125 33.453125 -5.46875 C 31.992188 -3.40625 30.054688 -1.738281 27.640625 -0.46875 C 25.222656 0.789062 22.585938 1.421875 19.734375 1.421875 Z M 25.4375 -28.28125 C 23.769531 -28.28125 22.34375 -28.875 21.15625 -30.0625 C 19.96875 -31.257812 19.375 -32.6875 19.375 -34.34375 C 19.375 -36.007812 19.96875 -37.4375 21.15625 -38.625 C 22.34375 -39.8125 23.769531 -40.40625 25.4375 -40.40625 C 27.019531 -40.40625 28.40625 -39.8125 29.59375 -38.625 C 30.78125 -37.4375 31.375 -36.007812 31.375 -34.34375 C 31.375 -32.6875 30.800781 -31.257812 29.65625 -30.0625 C 28.507812 -28.875 27.101562 -28.28125 25.4375 -28.28125 Z M 9.75 0.71875 C 7.769531 0.71875 6.066406 0.00390625 4.640625 -1.421875 C 3.210938 -2.847656 2.5 -4.550781 2.5 -6.53125 C 2.5 -8.59375 3.210938 -10.316406 4.640625 -11.703125 C 6.066406 -13.085938 7.769531 -13.78125 9.75 -13.78125 C 11.8125 -13.78125 13.535156 -13.085938 14.921875 -11.703125 C 16.304688 -10.316406 17 -8.59375 17 -6.53125 C 17 -4.550781 16.304688 -2.847656 14.921875 -1.421875 C 13.535156 0.00390625 11.8125 0.71875 9.75 0.71875 Z M 9.75 0.71875 "/></g></g></g><g fill="#2b2b2b" fill-opacity="0.4"><g transform="translate(451.949368, 107.070605)"><g><path d="M 20.5625 1.421875 C 17.15625 0.953125 14.082031 -0.269531 11.34375 -2.25 C 8.613281 -4.238281 6.457031 -6.71875 4.875 -9.6875 C 3.289062 -12.65625 2.5 -15.882812 2.5 -19.375 L 2.5 -19.734375 C 2.5 -19.734375 2.5 -19.75 2.5 -19.78125 C 2.5 -19.820312 2.5 -19.84375 2.5 -19.84375 C 2.5 -23.332031 3.289062 -26.5625 4.875 -29.53125 C 6.457031 -32.507812 8.613281 -34.988281 11.34375 -36.96875 C 14.082031 -38.945312 17.15625 -40.175781 20.5625 -40.65625 C 20.164062 -40.332031 19.628906 -39.578125 18.953125 -38.390625 C 18.285156 -37.203125 17.953125 -35.140625 17.953125 -32.203125 L 17.953125 -7.015625 C 17.953125 -4.078125 18.285156 -2.015625 18.953125 -0.828125 C 19.628906 0.359375 20.164062 1.109375 20.5625 1.421875 Z M 26.390625 1.421875 C 26.941406 1.109375 27.535156 0.359375 28.171875 -0.828125 C 28.804688 -2.015625 29.125 -4.078125 29.125 -7.015625 L 29.125 -32.203125 C 29.125 -35.140625 28.804688 -37.203125 28.171875 -38.390625 C 27.535156 -39.578125 26.941406 -40.332031 26.390625 -40.65625 C 29.867188 -40.175781 32.972656 -38.945312 35.703125 -36.96875 C 38.441406 -34.988281 40.582031 -32.507812 42.125 -29.53125 C 43.675781 -26.5625 44.453125 -23.332031 44.453125 -19.84375 L 44.453125 -19.5 C 44.453125 -19.5 44.453125 -19.476562 44.453125 -19.4375 C 44.453125 -19.394531 44.453125 -19.375 44.453125 -19.375 C 44.453125 -15.882812 43.675781 -12.65625 42.125 -9.6875 C 40.582031 -6.71875 38.441406 -4.238281 35.703125 -2.25 C 32.972656 -0.269531 29.867188 0.953125 26.390625 1.421875 Z M 26.390625 1.421875 "/></g></g></g><g fill="#2b2b2b" fill-opacity="0.4"><g transform="translate(494.259889, 107.070605)"><g><path d="M 30.421875 -26.265625 C 28.441406 -26.265625 26.738281 -26.976562 25.3125 -28.40625 C 23.882812 -29.832031 23.171875 -31.535156 23.171875 -33.515625 C 23.171875 -35.492188 23.882812 -37.175781 25.3125 -38.5625 C 26.738281 -39.957031 28.441406 -40.65625 30.421875 -40.65625 C 32.410156 -40.65625 34.097656 -39.957031 35.484375 -38.5625 C 36.867188 -37.175781 37.5625 -35.492188 37.5625 -33.515625 C 37.5625 -31.535156 36.867188 -29.832031 35.484375 -28.40625 C 34.097656 -26.976562 32.410156 -26.265625 30.421875 -26.265625 Z M 4.984375 0 L 4.984375 -39.578125 L 19.734375 -39.578125 L 19.734375 0 Z M 4.984375 0 "/></g></g></g><g fill="#1274c0" fill-opacity="1"><g transform="translate(267.375929, 107.070605)"><g><path d="M 34.234375 0 L 16.875 -42.4375 L 24.84375 -64.0625 L 51.578125 0 Z M 34.234375 0 "/></g></g></g><g fill="#1274c0" fill-opacity="1"><g transform="translate(316.460964, 107.070605)"><g><path d="M 28.171875 0 L 28.171875 -62.640625 L 42.796875 -62.640625 L 42.796875 0 Z M 20.5625 1.421875 C 17.15625 0.953125 14.082031 -0.269531 11.34375 -2.25 C 8.613281 -4.238281 6.457031 -6.71875 4.875 -9.6875 C 3.289062 -12.65625 2.5 -15.882812 2.5 -19.375 L 2.5 -19.5 C 2.5 -19.5 2.5 -19.554688 2.5 -19.671875 C 2.5 -19.785156 2.5 -19.84375 2.5 -19.84375 C 2.5 -23.332031 3.289062 -26.5625 4.875 -29.53125 C 6.457031 -32.507812 8.613281 -34.988281 11.34375 -36.96875 C 14.082031 -38.945312 17.15625 -40.175781 20.5625 -40.65625 C 19.050781 -39.78125 17.84375 -37.835938 16.9375 -34.828125 C 16.03125 -31.816406 15.578125 -26.90625 15.578125 -20.09375 C 15.578125 -13.113281 16.03125 -8 16.9375 -4.75 C 17.84375 -1.5 19.050781 0.554688 20.5625 1.421875 Z M 20.5625 1.421875 "/></g></g></g><g fill="#1274c0" fill-opacity="1"><g transform="translate(359.603442, 107.070605)"><g><path d="M 35.53125 -26.265625 C 33.550781 -26.265625 31.847656 -26.976562 30.421875 -28.40625 C 28.992188 -29.832031 28.28125 -31.535156 28.28125 -33.515625 C 28.28125 -35.492188 28.992188 -37.175781 30.421875 -38.5625 C 31.847656 -39.957031 33.550781 -40.65625 35.53125 -40.65625 C 37.59375 -40.65625 39.316406 -39.957031 40.703125 -38.5625 C 42.097656 -37.175781 42.796875 -35.492188 42.796875 -33.515625 C 42.796875 -31.535156 42.097656 -29.832031 40.703125 -28.40625 C 39.316406 -26.976562 37.59375 -26.265625 35.53125 -26.265625 Z M 21.28125 1.421875 L 0.953125 -39.578125 L 15.6875 -39.578125 L 28.875 -14.03125 Z M 21.28125 1.421875 "/></g></g></g><g fill="#1274c0" fill-opacity="1"><g transform="translate(398.586144, 107.070605)"><g><path d="M 12.359375 -48.375 C 10.378906 -48.375 8.675781 -49.066406 7.25 -50.453125 C 5.820312 -51.835938 5.109375 -53.519531 5.109375 -55.5 C 5.109375 -57.5625 5.820312 -59.285156 7.25 -60.671875 C 8.675781 -62.054688 10.378906 -62.75 12.359375 -62.75 C 14.335938 -62.75 16.019531 -62.054688 17.40625 -60.671875 C 18.800781 -59.285156 19.5 -57.5625 19.5 -55.5 C 19.5 -53.519531 18.800781 -51.835938 17.40625 -50.453125 C 16.019531 -49.066406 14.335938 -48.375 12.359375 -48.375 Z M 4.984375 0 L 4.984375 -39.578125 L 19.734375 -39.578125 L 19.734375 0 Z M 4.984375 0 "/></g></g></g><g fill="#1274c0" fill-opacity="1"><g transform="translate(418.552664, 107.070605)"><g><path d="M 19.734375 1.421875 C 22.585938 -0.710938 24.015625 -3.5625 24.015625 -7.125 C 24.015625 -9.269531 23.300781 -10.972656 21.875 -12.234375 C 20.445312 -13.503906 18.703125 -14.578125 16.640625 -15.453125 C 14.578125 -16.328125 12.492188 -17.257812 10.390625 -18.25 C 8.296875 -19.238281 6.535156 -20.523438 5.109375 -22.109375 C 3.679688 -23.691406 2.96875 -25.789062 2.96875 -28.40625 C 2.96875 -30.3125 3.582031 -32.191406 4.8125 -34.046875 C 6.039062 -35.910156 7.742188 -37.457031 9.921875 -38.6875 C 12.097656 -39.914062 14.613281 -40.53125 17.46875 -40.53125 C 15.007812 -38.625 13.78125 -36.601562 13.78125 -34.46875 C 13.78125 -32.164062 14.515625 -30.359375 15.984375 -29.046875 C 17.453125 -27.742188 19.273438 -26.617188 21.453125 -25.671875 C 23.628906 -24.722656 25.804688 -23.734375 27.984375 -22.703125 C 30.171875 -21.671875 31.992188 -20.320312 33.453125 -18.65625 C 34.921875 -17 35.65625 -14.742188 35.65625 -11.890625 C 35.65625 -9.671875 34.921875 -7.53125 33.453125 -5.46875 C 31.992188 -3.40625 30.054688 -1.738281 27.640625 -0.46875 C 25.222656 0.789062 22.585938 1.421875 19.734375 1.421875 Z M 25.4375 -28.28125 C 23.769531 -28.28125 22.34375 -28.875 21.15625 -30.0625 C 19.96875 -31.257812 19.375 -32.6875 19.375 -34.34375 C 19.375 -36.007812 19.96875 -37.4375 21.15625 -38.625 C 22.34375 -39.8125 23.769531 -40.40625 25.4375 -40.40625 C 27.019531 -40.40625 28.40625 -39.8125 29.59375 -38.625 C 30.78125 -37.4375 31.375 -36.007812 31.375 -34.34375 C 31.375 -32.6875 30.800781 -31.257812 29.65625 -30.0625 C 28.507812 -28.875 27.101562 -28.28125 25.4375 -28.28125 Z M 9.75 0.71875 C 7.769531 0.71875 6.066406 0.00390625 4.640625 -1.421875 C 3.210938 -2.847656 2.5 -4.550781 2.5 -6.53125 C 2.5 -8.59375 3.210938 -10.316406 4.640625 -11.703125 C 6.066406 -13.085938 7.769531 -13.78125 9.75 -13.78125 C 11.8125 -13.78125 13.535156 -13.085938 14.921875 -11.703125 C 16.304688 -10.316406 17 -8.59375 17 -6.53125 C 17 -4.550781 16.304688 -2.847656 14.921875 -1.421875 C 13.535156 0.00390625 11.8125 0.71875 9.75 0.71875 Z M 9.75 0.71875 "/></g></g></g><g fill="#1274c0" fill-opacity="1"><g transform="translate(451.949368, 107.070605)"><g><path d="M 20.5625 1.421875 C 17.15625 0.953125 14.082031 -0.269531 11.34375 -2.25 C 8.613281 -4.238281 6.457031 -6.71875 4.875 -9.6875 C 3.289062 -12.65625 2.5 -15.882812 2.5 -19.375 L 2.5 -19.734375 C 2.5 -19.734375 2.5 -19.75 2.5 -19.78125 C 2.5 -19.820312 2.5 -19.84375 2.5 -19.84375 C 2.5 -23.332031 3.289062 -26.5625 4.875 -29.53125 C 6.457031 -32.507812 8.613281 -34.988281 11.34375 -36.96875 C 14.082031 -38.945312 17.15625 -40.175781 20.5625 -40.65625 C 20.164062 -40.332031 19.628906 -39.578125 18.953125 -38.390625 C 18.285156 -37.203125 17.953125 -35.140625 17.953125 -32.203125 L 17.953125 -7.015625 C 17.953125 -4.078125 18.285156 -2.015625 18.953125 -0.828125 C 19.628906 0.359375 20.164062 1.109375 20.5625 1.421875 Z M 26.390625 1.421875 C 26.941406 1.109375 27.535156 0.359375 28.171875 -0.828125 C 28.804688 -2.015625 29.125 -4.078125 29.125 -7.015625 L 29.125 -32.203125 C 29.125 -35.140625 28.804688 -37.203125 28.171875 -38.390625 C 27.535156 -39.578125 26.941406 -40.332031 26.390625 -40.65625 C 29.867188 -40.175781 32.972656 -38.945312 35.703125 -36.96875 C 38.441406 -34.988281 40.582031 -32.507812 42.125 -29.53125 C 43.675781 -26.5625 44.453125 -23.332031 44.453125 -19.84375 L 44.453125 -19.5 C 44.453125 -19.5 44.453125 -19.476562 44.453125 -19.4375 C 44.453125 -19.394531 44.453125 -19.375 44.453125 -19.375 C 44.453125 -15.882812 43.675781 -12.65625 42.125 -9.6875 C 40.582031 -6.71875 38.441406 -4.238281 35.703125 -2.25 C 32.972656 -0.269531 29.867188 0.953125 26.390625 1.421875 Z M 26.390625 1.421875 "/></g></g></g><g fill="#1274c0" fill-opacity="1"><g transform="translate(494.259889, 107.070605)"><g><path d="M 30.421875 -26.265625 C 28.441406 -26.265625 26.738281 -26.976562 25.3125 -28.40625 C 23.882812 -29.832031 23.171875 -31.535156 23.171875 -33.515625 C 23.171875 -35.492188 23.882812 -37.175781 25.3125 -38.5625 C 26.738281 -39.957031 28.441406 -40.65625 30.421875 -40.65625 C 32.410156 -40.65625 34.097656 -39.957031 35.484375 -38.5625 C 36.867188 -37.175781 37.5625 -35.492188 37.5625 -33.515625 C 37.5625 -31.535156 36.867188 -29.832031 35.484375 -28.40625 C 34.097656 -26.976562 32.410156 -26.265625 30.421875 -26.265625 Z M 4.984375 0 L 4.984375 -39.578125 L 19.734375 -39.578125 L 19.734375 0 Z M 4.984375 0 "/></g></g></g><g clip-path="url(#efa65d8138)"><path stroke-linecap="butt" transform="matrix(0.261424, -0.700165, 0.700165, 0.261424, 257.106391, 103.837765)" fill="none" stroke-linejoin="miter" d="M 0.00196744 8.500408 L 92.078175 8.499589 " stroke="#1274c0" stroke-width="17" stroke-opacity="1" stroke-miterlimit="4"/></g></svg>