<svg xmlns="http://www.w3.org/2000/svg" xmlns:xlink="http://www.w3.org/1999/xlink" width="48" zoomAndPan="magnify" viewBox="0 0 36 36.000001" height="48" preserveAspectRatio="xMidYMid meet" version="1.0"><defs><g/><clipPath id="68e5a80e1b"><path d="M 0.488281 0 L 35.511719 0 L 35.511719 35.027344 L 0.488281 35.027344 Z M 0.488281 0 " clip-rule="nonzero"/></clipPath></defs><g clip-path="url(#68e5a80e1b)"><path fill="#ffffff" d="M 0.488281 0 L 35.511719 0 L 35.511719 35.027344 L 0.488281 35.027344 Z M 0.488281 0 " fill-opacity="1" fill-rule="nonzero"/><path fill="#ffffff" d="M 0.488281 0 L 35.511719 0 L 35.511719 35.027344 L 0.488281 35.027344 Z M 0.488281 0 " fill-opacity="1" fill-rule="nonzero"/></g><g fill="#2b2b2b" fill-opacity="0.4"><g transform="translate(1.573123, 24.998523)"><g><path d="M 5.65625 -2.3125 C 6.363281 -2.3125 7.023438 -2.488281 7.640625 -2.84375 C 8.265625 -3.207031 8.578125 -3.738281 8.578125 -4.4375 C 8.578125 -5 8.359375 -5.445312 7.921875 -5.78125 C 7.484375 -6.125 6.789062 -6.484375 5.84375 -6.859375 C 4.875 -7.234375 4.085938 -7.585938 3.484375 -7.921875 C 2.890625 -8.265625 2.390625 -8.742188 1.984375 -9.359375 C 1.578125 -9.972656 1.375 -10.757812 1.375 -11.71875 C 1.375 -13.382812 1.914062 -14.632812 3 -15.46875 C 4.082031 -16.3125 5.460938 -16.734375 7.140625 -16.734375 C 8.578125 -16.734375 9.882812 -16.539062 11.0625 -16.15625 L 10.75 -13.4375 C 9.632812 -13.90625 8.519531 -14.140625 7.40625 -14.140625 C 6.695312 -14.140625 6.085938 -13.953125 5.578125 -13.578125 C 5.066406 -13.210938 4.8125 -12.640625 4.8125 -11.859375 C 4.8125 -11.460938 4.9375 -11.128906 5.1875 -10.859375 C 5.4375 -10.597656 5.726562 -10.390625 6.0625 -10.234375 C 6.394531 -10.085938 6.90625 -9.875 7.59375 -9.59375 C 8.519531 -9.25 9.289062 -8.894531 9.90625 -8.53125 C 10.519531 -8.175781 11.023438 -7.6875 11.421875 -7.0625 C 11.828125 -6.4375 12.03125 -5.644531 12.03125 -4.6875 C 12.03125 -3.101562 11.484375 -1.878906 10.390625 -1.015625 C 9.304688 -0.148438 7.785156 0.28125 5.828125 0.28125 C 5.054688 0.28125 4.398438 0.234375 3.859375 0.140625 C 3.316406 0.046875 2.570312 -0.117188 1.625 -0.359375 L 1.9375 -3.328125 C 3.1875 -2.648438 4.425781 -2.3125 5.65625 -2.3125 Z M 5.65625 -2.3125 "/></g></g></g><g fill="#ff6c00" fill-opacity="1"><g transform="translate(1.573123, 24.998523)"><g><path d="M 5.65625 -2.3125 C 6.363281 -2.3125 7.023438 -2.488281 7.640625 -2.84375 C 8.265625 -3.207031 8.578125 -3.738281 8.578125 -4.4375 C 8.578125 -5 8.359375 -5.445312 7.921875 -5.78125 C 7.484375 -6.125 6.789062 -6.484375 5.84375 -6.859375 C 4.875 -7.234375 4.085938 -7.585938 3.484375 -7.921875 C 2.890625 -8.265625 2.390625 -8.742188 1.984375 -9.359375 C 1.578125 -9.972656 1.375 -10.757812 1.375 -11.71875 C 1.375 -13.382812 1.914062 -14.632812 3 -15.46875 C 4.082031 -16.3125 5.460938 -16.734375 7.140625 -16.734375 C 8.578125 -16.734375 9.882812 -16.539062 11.0625 -16.15625 L 10.75 -13.4375 C 9.632812 -13.90625 8.519531 -14.140625 7.40625 -14.140625 C 6.695312 -14.140625 6.085938 -13.953125 5.578125 -13.578125 C 5.066406 -13.210938 4.8125 -12.640625 4.8125 -11.859375 C 4.8125 -11.460938 4.9375 -11.128906 5.1875 -10.859375 C 5.4375 -10.597656 5.726562 -10.390625 6.0625 -10.234375 C 6.394531 -10.085938 6.90625 -9.875 7.59375 -9.59375 C 8.519531 -9.25 9.289062 -8.894531 9.90625 -8.53125 C 10.519531 -8.175781 11.023438 -7.6875 11.421875 -7.0625 C 11.828125 -6.4375 12.03125 -5.644531 12.03125 -4.6875 C 12.03125 -3.101562 11.484375 -1.878906 10.390625 -1.015625 C 9.304688 -0.148438 7.785156 0.28125 5.828125 0.28125 C 5.054688 0.28125 4.398438 0.234375 3.859375 0.140625 C 3.316406 0.046875 2.570312 -0.117188 1.625 -0.359375 L 1.9375 -3.328125 C 3.1875 -2.648438 4.425781 -2.3125 5.65625 -2.3125 Z M 5.65625 -2.3125 "/></g></g></g><g fill="#2b2b2b" fill-opacity="0.4"><g transform="translate(13.74471, 24.998523)"><g><path d="M 5.0625 -3.765625 L 3.625 0 L 0.21875 0 L 6.625 -16.453125 L 10.34375 -16.453125 L 16.8125 0 L 13.15625 0 L 11.734375 -3.765625 Z M 6.015625 -6.359375 L 10.828125 -6.359375 L 8.4375 -13.15625 L 8.390625 -13.15625 Z M 6.015625 -6.359375 "/></g></g></g><g fill="#1274c0" fill-opacity="1"><g transform="translate(13.74471, 24.998523)"><g><path d="M 5.0625 -3.765625 L 3.625 0 L 0.21875 0 L 6.625 -16.453125 L 10.34375 -16.453125 L 16.8125 0 L 13.15625 0 L 11.734375 -3.765625 Z M 6.015625 -6.359375 L 10.828125 -6.359375 L 8.4375 -13.15625 L 8.390625 -13.15625 Z M 6.015625 -6.359375 "/></g></g></g></svg>