<svg xmlns="http://www.w3.org/2000/svg" xmlns:xlink="http://www.w3.org/1999/xlink" width="500" zoomAndPan="magnify" viewBox="0 0 375 374.999991" height="500" preserveAspectRatio="xMidYMid meet" version="1.0"><defs><g/></defs><rect x="-37.5" width="450" fill="#ffffff" y="-37.499999" height="449.999989" fill-opacity="1"/><rect x="-37.5" width="450" fill="#ffffff" y="-37.499999" height="449.999989" fill-opacity="1"/><g fill="#2b2b2b" fill-opacity="0.4"><g transform="translate(69.488249, 250.546964)"><g><path d="M 41.921875 -15.171875 C 49.109375 -15.171875 55.460938 -17.164062 60.984375 -21.15625 C 66.503906 -25.15625 69.265625 -30.742188 69.265625 -37.921875 C 69.265625 -43.242188 67.398438 -47.867188 63.671875 -51.796875 C 59.953125 -55.722656 52.835938 -60.082031 42.328125 -64.875 C 35.265625 -68.070312 29.4375 -71.265625 24.84375 -74.453125 C 20.257812 -77.648438 16.535156 -81.609375 13.671875 -86.328125 C 10.804688 -91.054688 9.375 -96.882812 9.375 -103.8125 C 9.375 -115.382812 13.429688 -124.597656 21.546875 -131.453125 C 29.671875 -138.304688 40.519531 -141.734375 54.09375 -141.734375 C 64.476562 -141.734375 74.394531 -140.070312 83.84375 -136.75 L 81.046875 -118.375 C 75.585938 -120.632812 71.03125 -122.164062 67.375 -122.96875 C 63.71875 -123.769531 59.625 -124.171875 55.09375 -124.171875 C 47.238281 -124.171875 41.179688 -122.539062 36.921875 -119.28125 C 32.671875 -116.019531 30.546875 -111.460938 30.546875 -105.609375 C 30.546875 -100.816406 32.375 -96.789062 36.03125 -93.53125 C 39.6875 -90.269531 45.109375 -86.972656 52.296875 -83.640625 L 56.6875 -81.453125 C 63.75 -77.984375 69.507812 -74.6875 73.96875 -71.5625 C 78.425781 -68.4375 82.285156 -64.210938 85.546875 -58.890625 C 88.804688 -53.566406 90.4375 -46.976562 90.4375 -39.125 C 90.4375 -25.8125 85.941406 -15.5625 76.953125 -8.375 C 67.972656 -1.195312 55.5625 2.390625 39.71875 2.390625 C 35.0625 2.390625 30.632812 1.921875 26.4375 0.984375 C 22.25 0.0546875 17.097656 -1.398438 10.984375 -3.390625 L 12.96875 -21.953125 C 17.894531 -19.960938 22.953125 -18.332031 28.140625 -17.0625 C 33.335938 -15.800781 37.929688 -15.171875 41.921875 -15.171875 Z M 41.921875 -15.171875 "/></g></g></g><g fill="#ff6c00" fill-opacity="1"><g transform="translate(69.488249, 250.546964)"><g><path d="M 41.921875 -15.171875 C 49.109375 -15.171875 55.460938 -17.164062 60.984375 -21.15625 C 66.503906 -25.15625 69.265625 -30.742188 69.265625 -37.921875 C 69.265625 -43.242188 67.398438 -47.867188 63.671875 -51.796875 C 59.953125 -55.722656 52.835938 -60.082031 42.328125 -64.875 C 35.265625 -68.070312 29.4375 -71.265625 24.84375 -74.453125 C 20.257812 -77.648438 16.535156 -81.609375 13.671875 -86.328125 C 10.804688 -91.054688 9.375 -96.882812 9.375 -103.8125 C 9.375 -115.382812 13.429688 -124.597656 21.546875 -131.453125 C 29.671875 -138.304688 40.519531 -141.734375 54.09375 -141.734375 C 64.476562 -141.734375 74.394531 -140.070312 83.84375 -136.75 L 81.046875 -118.375 C 75.585938 -120.632812 71.03125 -122.164062 67.375 -122.96875 C 63.71875 -123.769531 59.625 -124.171875 55.09375 -124.171875 C 47.238281 -124.171875 41.179688 -122.539062 36.921875 -119.28125 C 32.671875 -116.019531 30.546875 -111.460938 30.546875 -105.609375 C 30.546875 -100.816406 32.375 -96.789062 36.03125 -93.53125 C 39.6875 -90.269531 45.109375 -86.972656 52.296875 -83.640625 L 56.6875 -81.453125 C 63.75 -77.984375 69.507812 -74.6875 73.96875 -71.5625 C 78.425781 -68.4375 82.285156 -64.210938 85.546875 -58.890625 C 88.804688 -53.566406 90.4375 -46.976562 90.4375 -39.125 C 90.4375 -25.8125 85.941406 -15.5625 76.953125 -8.375 C 67.972656 -1.195312 55.5625 2.390625 39.71875 2.390625 C 35.0625 2.390625 30.632812 1.921875 26.4375 0.984375 C 22.25 0.0546875 17.097656 -1.398438 10.984375 -3.390625 L 12.96875 -21.953125 C 17.894531 -19.960938 22.953125 -18.332031 28.140625 -17.0625 C 33.335938 -15.800781 37.929688 -15.171875 41.921875 -15.171875 Z M 41.921875 -15.171875 "/></g></g></g><g fill="#2b2b2b" fill-opacity="0.4"><g transform="translate(161.334123, 250.546964)"><g><path d="M 37.53125 -35.140625 L 23.359375 0 L 2.390625 0 L 61.890625 -139.34375 L 82.84375 -139.34375 L 141.734375 0 L 119.96875 0 L 105.796875 -35.140625 Z M 99.40625 -51.5 L 71.671875 -120.578125 L 43.921875 -51.5 Z M 99.40625 -51.5 "/></g></g></g><g fill="#1274c0" fill-opacity="1"><g transform="translate(161.334123, 250.546964)"><g><path d="M 37.53125 -35.140625 L 23.359375 0 L 2.390625 0 L 61.890625 -139.34375 L 82.84375 -139.34375 L 141.734375 0 L 119.96875 0 L 105.796875 -35.140625 Z M 99.40625 -51.5 L 71.671875 -120.578125 L 43.921875 -51.5 Z M 99.40625 -51.5 "/></g></g></g></svg>